<svg xmlns="http://www.w3.org/2000/svg" width="760" height="420" viewBox="0 0 760 420">
  <style>
    text { font-family: 'Segoe UI', Tahoma, sans-serif; fill: #1a1a1a; font-size: 16px; }
    .title { font-size: 22px; font-weight: 600; }
    .subtitle { font-size: 14px; fill: #374151; }
    rect { rx: 8; ry: 8; }
    .layer { fill: #f9fafb; stroke: #d1d5db; stroke-width: 2; }
    .component { fill: #ffffff; stroke: #6b7280; stroke-width: 2; }
    .accent { fill: #ecfeff; stroke: #0ea5e9; stroke-width: 2; }
    .arrow { stroke: #334155; stroke-width: 2.5; marker-end: url(#arrowhead); }
  </style>
  <defs>
    <marker id="arrowhead" markerWidth="10" markerHeight="7" refX="10" refY="3.5" orient="auto">
      <polygon points="0 0, 10 3.5, 0 7" fill="#334155" />
    </marker>
  </defs>
  <text class="title" x="30" y="42">Frontend High-Level Design</text>
  <text class="subtitle" x="30" y="66">Composition of SPA providers, feature shells, and backend integrations</text>

  <rect class="layer" x="20" y="90" width="720" height="300" />
  <text class="subtitle" x="40" y="116">Application Shell</text>

  <rect class="accent" x="60" y="140" width="220" height="110" />
  <text x="80" y="176">Providers</text>
  <text class="subtitle" x="80" y="202">AuthProvider • ThemeProvider</text>
  <text class="subtitle" x="80" y="222">QueryClient • SSE listener</text>

  <rect class="component" x="320" y="130" width="360" height="130" />
  <text x="340" y="168">Navigation &amp; Layout</text>
  <text class="subtitle" x="340" y="194">Global header, route guards,</text>
  <text class="subtitle" x="340" y="214">toasts, modal host</text>

  <rect class="component" x="60" y="270" width="180" height="90" />
  <text x="80" y="308">Submission Flow</text>
  <text class="subtitle" x="80" y="334">Upload wizard, presets</text>

  <rect class="component" x="270" y="270" width="180" height="90" />
  <text x="290" y="308">Job Board</text>
  <text class="subtitle" x="290" y="334">Status tables, filters</text>

  <rect class="component" x="480" y="270" width="220" height="90" />
  <text x="500" y="308">Review Workspace</text>
  <text class="subtitle" x="500" y="334">Preview, download, notes</text>

  <line class="arrow" x1="280" y1="195" x2="320" y2="195" />
  <line class="arrow" x1="140" y1="250" x2="140" y2="270" />
  <line class="arrow" x1="360" y1="260" x2="360" y2="210" />
  <line class="arrow" x1="580" y1="260" x2="580" y2="210" />

  <rect class="layer" x="520" y="40" width="200" height="80" />
  <text class="subtitle" x="540" y="70">Backend APIs</text>
  <text class="subtitle" x="540" y="96">/auth • /pipelines • /storage</text>
  <line class="arrow" x1="520" y1="80" x2="480" y2="150" />
</svg>
